<svg width="400" height="343" viewBox="0 0 400 343" fill="none" xmlns="http://www.w3.org/2000/svg">
<g id="img3">
<path id="Path" opacity="0.15" d="M77.783 231.761C89.7135 238.017 105.073 241.885 122.101 242.594C122.109 242.65 122.113 242.706 122.12 242.762C127.326 281.686 184.598 306.505 250.041 298.196C312.371 290.283 359.631 255.174 359.49 218.222C385.876 206.134 402.368 186.583 399.723 166.806C398.043 154.241 388.919 143.696 375.136 136.365C382.304 125.587 385.618 113.958 384.055 102.271C378.849 63.3472 321.577 38.5284 256.134 46.837C214.638 52.1052 179.827 69.4296 161.229 91.3246C145.232 88.9172 127.659 88.6613 109.451 90.973C44.0075 99.2815 -4.82499 137.571 0.380354 176.495C4.17537 204.873 35.6485 225.749 77.783 231.761Z" fill="black"/>
<ellipse id="Oval" opacity="0.87" cx="149.34" cy="167.729" rx="46.3204" ry="45.1325" fill="white"/>
<ellipse id="Oval_2" cx="141.58" cy="52.7711" rx="9.82187" ry="9.56997" fill="#8ECDDD"/>
<ellipse id="Oval_3" cx="380.702" cy="220.069" rx="4.97157" ry="4.84406" fill="#8ECDDD"/>
<ellipse id="Oval_4" opacity="0.3" cx="50.8219" cy="255.57" rx="9.82187" ry="9.56997" fill="#8ECDDD"/>
<path id="Path_2" d="M287.898 224.817C333.185 227.71 341.059 226.546 341.059 226.546C341.059 226.546 343.089 109.69 315.566 83.4117C288.042 57.1331 310.051 158.659 310.051 158.659L287.898 224.817Z" fill="white" stroke="black" stroke-width="1.056" stroke-linecap="round" stroke-linejoin="round"/>
<path id="Path_3" d="M270.89 159.769C270.89 159.769 268.769 163.582 269.66 167.912C270.55 172.242 269.598 175.091 269.598 175.091C269.598 175.091 272.323 176.362 272.492 171.382C272.492 171.382 275.902 177.676 275.975 180.922C276.048 184.167 279.879 184.366 278.494 177.156C277.108 169.945 275.028 162.268 277.434 157.952C279.84 153.636 270.89 159.769 270.89 159.769Z" fill="white" stroke="black" stroke-width="1.056" stroke-linecap="round" stroke-linejoin="round"/>
<path id="Path_4" d="M277.991 161.902C272.067 162.635 262.039 155.976 262.039 155.976L263.794 126.133C263.63 123.242 264.399 120.373 265.993 117.929L289.921 81.2646L305.298 94.5982L286.172 127.079L277.991 161.902Z" fill="white"/>
<g id="Clipped">
<mask id="mask0_1672_20089" style="mask-type:luminance" maskUnits="userSpaceOnUse" x="262" y="81" width="44" height="81">
<path id="Path_5" fill-rule="evenodd" clip-rule="evenodd" d="M277.991 161.902C272.067 162.635 262.039 155.976 262.039 155.976L263.794 126.133C263.63 123.242 264.399 120.373 265.993 117.929L289.921 81.2646L305.298 94.5982L286.172 127.079L277.991 161.902Z" fill="white"/>
</mask>
<g mask="url(#mask0_1672_20089)">
<g id="Group">
<path id="Path_6" d="M287.895 101.648C279.073 95.6739 286.332 132.297 281.4 150.178C276.469 168.058 295.542 132.211 295.542 132.211L289.943 113.827" fill="#CFCFD0"/>
<g id="Path_7">
<path d="M257.438 144.619C268.727 156.262 283.667 152.922 283.667 152.922L257.438 144.619Z" fill="white"/>
<path d="M257.438 144.619C268.727 156.262 283.667 152.922 283.667 152.922" stroke="black" stroke-width="1.056" stroke-linecap="round" stroke-linejoin="round"/>
</g>
</g>
</g>
</g>
<path id="Path_8" fill-rule="evenodd" clip-rule="evenodd" d="M277.991 161.902C272.067 162.635 262.039 155.976 262.039 155.976L263.794 126.133C263.63 123.242 264.399 120.373 265.993 117.929L289.921 81.2646L305.298 94.5982L286.172 127.079L277.991 161.902Z" stroke="black" stroke-width="1.056" stroke-linecap="round" stroke-linejoin="round"/>
<path id="Path_9" d="M273.086 297.682L286.147 297.762L291.922 276.494L276.026 276.397L273.086 297.682Z" fill="white"/>
<g id="Clipped_2">
<mask id="mask1_1672_20089" style="mask-type:luminance" maskUnits="userSpaceOnUse" x="273" y="276" width="19" height="22">
<path id="Path_10" fill-rule="evenodd" clip-rule="evenodd" d="M273.086 297.682L286.147 297.762L291.922 276.494L276.026 276.397L273.086 297.682Z" fill="white"/>
</mask>
<g mask="url(#mask1_1672_20089)">
<path id="Path_11" d="M264.582 287.08C285.109 289.197 291.556 287.962 289.784 284.374C288.012 280.786 274.394 278.947 274.394 278.947L272.163 279.522" fill="#CFCFD0"/>
</g>
</g>
<path id="Path_12" fill-rule="evenodd" clip-rule="evenodd" d="M273.086 297.682L286.147 297.762L291.922 276.494L276.026 276.397L273.086 297.682V297.682Z" stroke="black" stroke-width="1.056" stroke-linecap="round" stroke-linejoin="round"/>
<path id="Path_13" d="M315.438 305.646C316.209 301.882 313.383 300.548 309.079 299.822C299.576 298.218 288.865 295.627 288.596 291.827L272.996 291.188L270.937 302.288C270.656 303.806 271.94 305.079 273.765 305.09L315.438 305.646Z" fill="black" stroke="black" stroke-width="1.056" stroke-linecap="round" stroke-linejoin="round"/>
<path id="Path_14" d="M249.909 154.107L244.98 165.447L263.899 178.371L269.897 164.57L249.909 154.107Z" fill="white"/>
<g id="Clipped_3">
<mask id="mask2_1672_20089" style="mask-type:luminance" maskUnits="userSpaceOnUse" x="244" y="154" width="26" height="25">
<path id="Path_15" fill-rule="evenodd" clip-rule="evenodd" d="M249.909 154.107L244.98 165.447L263.899 178.371L269.897 164.57L249.909 154.107Z" fill="white"/>
</mask>
<g mask="url(#mask2_1672_20089)">
<path id="Path_16" d="M247.156 174.277C255.061 176.575 256.037 163.437 261.482 160.862C266.926 158.286 257.179 179.664 257.179 179.664L248.487 175.12" fill="#CFCFD0"/>
</g>
</g>
<path id="Path_17" fill-rule="evenodd" clip-rule="evenodd" d="M249.909 154.107L244.98 165.447L263.899 178.371L269.897 164.57L249.909 154.107V154.107Z" stroke="black" stroke-width="1.056" stroke-linecap="round" stroke-linejoin="round"/>
<path id="Path_18" d="M226.297 188.019C229.739 190.088 232.109 188.123 234.426 184.646C239.544 176.969 246.086 168.607 249.95 169.784L256.374 156.441L246.146 150.527C244.747 149.718 243.01 150.364 242.321 151.949L226.297 188.019Z" fill="black" stroke="black" stroke-width="1.056" stroke-linecap="round" stroke-linejoin="round"/>
<path id="Path_19" d="M262.897 159.111C257.44 163.426 256.375 190.091 256.375 190.091L328.881 218.902C338.007 223.267 348.53 215.991 346.779 206.528L326.51 121.905L300.578 126.806L318.084 187.683C318.084 187.683 264.523 157.825 262.897 159.111Z" fill="#2F395E"/>
<path id="Path_20" fill-rule="evenodd" clip-rule="evenodd" d="M262.897 159.111C257.44 163.426 256.375 190.091 256.375 190.091L328.881 218.902C338.007 223.267 348.53 215.991 346.779 206.528L326.51 121.905L300.578 126.806L318.084 187.683C318.084 187.683 264.523 157.825 262.897 159.111Z" stroke="black" stroke-width="1.056" stroke-linecap="round" stroke-linejoin="round"/>
<path id="Path_21" d="M292.709 284.84C287.745 287.097 264.578 281.345 264.578 281.345L287.361 201.885L292.294 121.905H326.507L310.747 208.403C310.747 208.403 294.968 283.813 292.709 284.84Z" fill="black"/>
<g id="Clipped_4">
<mask id="mask3_1672_20089" style="mask-type:luminance" maskUnits="userSpaceOnUse" x="264" y="121" width="63" height="165">
<path id="Path_22" fill-rule="evenodd" clip-rule="evenodd" d="M292.709 284.84C287.745 287.097 264.578 281.345 264.578 281.345L287.361 201.885L292.294 121.905H326.507L310.747 208.403C310.747 208.403 294.968 283.813 292.709 284.84Z" fill="white"/>
</mask>
<g mask="url(#mask3_1672_20089)">
<path id="Path_23" d="M273.895 163.765C302.911 164.917 288.276 138.015 317.717 128.789C347.158 119.563 293.209 122.278 293.209 122.278C291.12 126.119 277.543 147.247 277.543 147.247" fill="url(#paint0_linear_1672_20089)"/>
</g>
</g>
<path id="Path_24" fill-rule="evenodd" clip-rule="evenodd" d="M292.709 284.84C287.745 287.097 264.578 281.345 264.578 281.345L287.361 201.885L292.294 121.905H326.507L310.747 208.403C310.747 208.403 294.968 283.813 292.709 284.84Z" stroke="black" stroke-width="1.056" stroke-linecap="round" stroke-linejoin="round"/>
<path id="Path_25" d="M291.198 60.1605C291.269 60.7304 308.763 80.8866 308.763 80.8866L294.143 89.782L280.859 65.6472L295.302 58.4043" fill="white"/>
<g id="Clipped_5">
<mask id="mask4_1672_20089" style="mask-type:luminance" maskUnits="userSpaceOnUse" x="280" y="58" width="29" height="32">
<path id="Path_26" fill-rule="evenodd" clip-rule="evenodd" d="M291.198 60.1605C291.269 60.7304 308.763 80.8866 308.763 80.8866L294.143 89.782L280.859 65.6472L295.302 58.4043" fill="white"/>
</mask>
<g mask="url(#mask4_1672_20089)">
<path id="Path_27" d="M292.051 63.8474C289.946 66.0304 300.664 72.9467 300.664 72.9467L297.043 62.247C297.043 62.247 295.92 59.8354 292.051 63.8474Z" fill="#CFCFD0"/>
</g>
</g>
<path id="Path_28" d="M291.198 60.1605C291.269 60.7304 308.763 80.8866 308.763 80.8866L294.143 89.782L280.859 65.6472L295.302 58.4043" stroke="black" stroke-width="1.056" stroke-linecap="round" stroke-linejoin="round"/>
<g id="Path_29">
<path d="M295.081 63.429C311.68 59.339 291.373 40.489 286.333 39.0029C283.226 38.0869 278.398 51.2058 278.398 51.2058C278.398 51.2058 282.396 61.023 285.719 63.5967" fill="white"/>
<path d="M295.081 63.429C311.68 59.339 291.373 40.489 286.333 39.0029C283.226 38.0869 278.398 51.2058 278.398 51.2058C278.398 51.2058 282.396 61.023 285.719 63.5967" stroke="black" stroke-width="1.056" stroke-linecap="round" stroke-linejoin="round"/>
</g>
<path id="Path_30" d="M287.553 53.394C287.553 53.394 294.453 45.5852 291.806 40.4243C289.253 35.4463 275.98 30.1181 267.512 47.0246C260.931 60.1634 274.111 76.0993 283.342 68.4431C292.573 60.7869 287.553 53.394 287.553 53.394Z" fill="black" stroke="black" stroke-width="1.056" stroke-linecap="round" stroke-linejoin="round"/>
<ellipse id="Oval_5" cx="15.1807" cy="12.0718" rx="15.1807" ry="12.0718" transform="matrix(0.90243 -0.430837 0.449273 0.893394 246.039 59.3457)" fill="black" stroke="black" stroke-width="1.056" stroke-linecap="round" stroke-linejoin="round"/>
<path id="Path_31" d="M288.994 139.028C277.289 157.19 332.351 138.109 332.351 138.109C332.351 138.109 324.727 111.423 325.862 104.815C329.852 81.5819 324.459 78.4015 314.717 75.3391C314.552 75.2872 313.596 75.7089 313.421 75.6956L305.298 73.1311L301.173 69.2793L286.172 76.2876C286.172 76.2876 300.698 120.866 288.994 139.028Z" fill="white"/>
<g id="Clipped_6">
<mask id="mask5_1672_20089" style="mask-type:luminance" maskUnits="userSpaceOnUse" x="286" y="69" width="47" height="78">
<path id="Path_32" fill-rule="evenodd" clip-rule="evenodd" d="M288.994 139.028C277.289 157.19 332.351 138.109 332.351 138.109C332.351 138.109 324.727 111.423 325.862 104.815C329.852 81.5819 324.459 78.4015 314.717 75.3391C314.552 75.2872 313.596 75.7089 313.421 75.6956L305.298 73.1311L301.173 69.2793L286.172 76.2876C286.172 76.2876 300.698 120.866 288.994 139.028Z" fill="white"/>
</mask>
<g mask="url(#mask5_1672_20089)">
<g id="Path_33">
<path d="M309.25 88.7144L322.788 77.346L327.847 76.7959L332.53 84.4596C332.53 84.4596 325.786 109.984 323.744 102.931" fill="white"/>
<path d="M309.25 88.7144L322.788 77.346L327.847 76.7959L332.53 84.4596C332.53 84.4596 325.786 109.984 323.744 102.931" stroke="black" stroke-width="1.056" stroke-linecap="round" stroke-linejoin="round"/>
</g>
</g>
</g>
<path id="Path_34" fill-rule="evenodd" clip-rule="evenodd" d="M288.994 139.028C277.289 157.19 332.351 138.109 332.351 138.109C332.351 138.109 324.727 111.423 325.862 104.815C329.852 81.5819 324.459 78.4015 314.717 75.3391C314.552 75.2872 313.596 75.7089 313.421 75.6956L305.298 73.1311L301.173 69.2793L286.172 76.2876C286.172 76.2876 300.698 120.866 288.994 139.028Z" stroke="black" stroke-width="1.056" stroke-linecap="round" stroke-linejoin="round"/>
<path id="Path_35" d="M308.764 74.2256L286.787 78.3023C286.786 86.8196 284.665 90.5878 286.515 134.322C286.728 139.366 283.776 152.166 279.773 166.908C279.152 169.196 278.505 171.531 277.841 173.892C270.117 201.339 247.715 217.399 247.715 217.399C247.715 217.399 281.638 253.312 319.204 236.767C335.169 109.922 330.366 84.2424 308.764 74.2256Z" fill="white"/>
<g id="Clipped_7">
<mask id="mask6_1672_20089" style="mask-type:luminance" maskUnits="userSpaceOnUse" x="247" y="74" width="82" height="168">
<path id="Path_36" fill-rule="evenodd" clip-rule="evenodd" d="M308.764 74.2256L286.787 78.3023C286.786 86.8196 284.665 90.5878 286.515 134.322C286.728 139.366 283.776 152.166 279.773 166.908C279.152 169.196 278.505 171.531 277.841 173.892C270.117 201.339 247.715 217.399 247.715 217.399C247.715 217.399 281.638 253.312 319.204 236.767C335.169 109.922 330.366 84.2424 308.764 74.2256Z" fill="white"/>
</mask>
<g mask="url(#mask6_1672_20089)">
<g id="Group_2">
<path id="Path_37" d="M308.406 101.802C310.081 116.815 328.379 73.9045 332.355 138.109C334.654 175.242 334.233 103.487 334.233 103.487L328.65 74.2256L309.265 84.4914" fill="#CFCFD0"/>
<path id="Path_38" d="M256.785 186.901C274.385 208.655 283.564 204.366 283.67 207.429C283.67 207.429 263.824 204.366 250.165 196.093C236.506 187.821 265.462 209.574 252.706 207.429C239.95 205.285 235.84 199.959 235.84 199.959L247.463 189.676" fill="#CFCFD0"/>
</g>
</g>
</g>
<path id="Path_39" fill-rule="evenodd" clip-rule="evenodd" d="M308.764 74.2256L286.787 78.3023C286.786 86.8196 284.665 90.5878 286.515 134.322C286.728 139.366 283.776 152.166 279.773 166.908C279.152 169.196 278.505 171.531 277.841 173.892C270.117 201.339 247.715 217.399 247.715 217.399C247.715 217.399 281.638 253.312 319.204 236.767C335.169 109.922 330.366 84.2424 308.764 74.2256Z" stroke="black" stroke-width="1.056" stroke-linecap="round" stroke-linejoin="round"/>
<path id="Path_40" d="M356.81 31.4806C356.81 31.4806 360.93 27.7842 361.034 22.5769C361.138 17.3697 363.341 14.4136 363.341 14.4136C363.341 14.4136 359.954 12.1308 358.179 17.7552C358.179 17.7552 354.935 6.62775 355.837 2.90684C356.739 -0.814075 351.949 0.69629 351.641 9.33818C351.333 17.9801 351.843 27.3653 347.172 31.5482C342.5 35.731 356.81 31.4806 356.81 31.4806Z" fill="white"/>
<g id="Clipped_8">
<mask id="mask7_1672_20089" style="mask-type:luminance" maskUnits="userSpaceOnUse" x="346" y="1" width="18" height="33">
<path id="Path_41" fill-rule="evenodd" clip-rule="evenodd" d="M356.81 31.4806C356.81 31.4806 360.93 27.7842 361.034 22.5769C361.138 17.3697 363.341 14.4136 363.341 14.4136C363.341 14.4136 359.954 12.1308 358.179 17.7552C358.179 17.7552 354.935 6.62775 355.837 2.90684C356.739 -0.814075 351.949 0.69629 351.641 9.33818C351.333 17.9801 351.843 27.3653 347.172 31.5482C342.5 35.731 356.81 31.4806 356.81 31.4806Z" fill="white"/>
</mask>
<g mask="url(#mask7_1672_20089)">
<path id="Path_42" d="M346.234 27.4769C350.29 23.9447 356.627 30.6905 359.595 27.7886C362.562 24.8867 359.778 34.6269 359.778 34.6269L351.769 33.3901" fill="#CFCFD0"/>
</g>
</g>
<path id="Path_43" fill-rule="evenodd" clip-rule="evenodd" d="M356.81 31.4806C356.81 31.4806 360.93 27.7842 361.034 22.5769C361.138 17.3697 363.341 14.4136 363.341 14.4136C363.341 14.4136 359.954 12.1308 358.179 17.7552C358.179 17.7552 354.935 6.62775 355.837 2.90684C356.739 -0.814075 351.949 0.69629 351.641 9.33818C351.333 17.9801 351.843 27.3653 347.172 31.5482C342.5 35.731 356.81 31.4806 356.81 31.4806Z" stroke="black" stroke-width="1.056" stroke-linecap="round" stroke-linejoin="round"/>
<path id="Path_44" d="M292.996 80.0537L316.424 66.9723C324.722 62.3389 331.622 55.9278 336.509 48.3091C336.509 48.3091 347.14 26.2101 348.527 25.2961C349.915 24.3821 362.169 37.6516 362.169 37.6516L349.349 66.1158C348.26 68.9172 347.174 70.9652 343.621 75.2991L308.763 105.019" fill="white"/>
<g id="Clipped_9">
<mask id="mask8_1672_20089" style="mask-type:luminance" maskUnits="userSpaceOnUse" x="292" y="25" width="71" height="81">
<path id="Path_45" fill-rule="evenodd" clip-rule="evenodd" d="M292.996 80.0537L316.424 66.9723C324.722 62.3389 331.622 55.9278 336.509 48.3091C336.509 48.3091 347.14 26.2101 348.527 25.2961C349.915 24.3821 362.169 37.6516 362.169 37.6516L349.349 66.1158C348.26 68.9172 347.174 70.9652 343.621 75.2991L308.763 105.019" fill="white"/>
</mask>
<g mask="url(#mask8_1672_20089)">
<g id="Path_46">
<path d="M339.164 28.8037C347.173 31.5477 366.399 57.4915 366.399 57.4915L339.164 28.8037Z" fill="white"/>
<path d="M339.164 28.8037C347.173 31.5477 366.399 57.4915 366.399 57.4915" stroke="black" stroke-width="1.056" stroke-linecap="round" stroke-linejoin="round"/>
</g>
</g>
</g>
<path id="Path_47" d="M292.996 80.0537L316.424 66.9723C324.722 62.3389 331.622 55.9278 336.509 48.3091C336.509 48.3091 347.14 26.2101 348.527 25.2961C349.915 24.3821 362.169 37.6516 362.169 37.6516L349.349 66.1158C348.26 68.9172 347.174 70.9652 343.621 75.2991L308.763 105.019" stroke="black" stroke-width="1.056" stroke-linecap="round" stroke-linejoin="round"/>
<path id="Path_48" d="M304.428 131.613C304.1 131.739 303.782 131.887 303.476 132.057C298.15 135.004 295.557 144.492 293.841 150.772L293.469 152.127L294.689 152.243L295.063 150.883C296.623 145.174 299.234 135.618 304.042 132.958C305.345 132.235 306.719 132.065 308.241 132.437L308.728 131.38C307.306 131.011 305.799 131.092 304.428 131.613Z" fill="white"/>
<g id="Clipped_10">
<mask id="mask9_1672_20089" style="mask-type:luminance" maskUnits="userSpaceOnUse" x="293" y="131" width="16" height="22">
<path id="Path_49" fill-rule="evenodd" clip-rule="evenodd" d="M304.428 131.613C304.1 131.739 303.782 131.887 303.476 132.057C298.15 135.004 295.557 144.492 293.841 150.772L293.469 152.127L294.689 152.243L295.063 150.883C296.623 145.174 299.234 135.618 304.042 132.958C305.345 132.235 306.719 132.065 308.241 132.437L308.728 131.38C307.306 131.011 305.799 131.092 304.428 131.613Z" fill="white"/>
</mask>
<g mask="url(#mask9_1672_20089)">
<path id="Path_50" d="M295.375 151.37C293.84 150.772 294.026 150.558 293.86 149.796C293.694 149.034 292.178 150.829 292.203 150.911C292.229 150.993 293.555 152.724 293.62 152.61C293.685 152.496 295.565 152.093 295.565 152.093" fill="url(#paint1_linear_1672_20089)"/>
</g>
</g>
<path id="Path_51" fill-rule="evenodd" clip-rule="evenodd" d="M304.428 131.613C304.1 131.739 303.782 131.887 303.476 132.057C298.15 135.004 295.557 144.492 293.841 150.772L293.469 152.127L294.689 152.243L295.063 150.883C296.623 145.174 299.234 135.618 304.042 132.958C305.345 132.235 306.719 132.065 308.241 132.437L308.728 131.38C307.306 131.011 305.799 131.092 304.428 131.613V131.613Z" stroke="black" stroke-width="1.056" stroke-linecap="round" stroke-linejoin="round"/>
<path id="Path_52" d="M311.421 130.86L309.024 130.578C308.435 130.508 307.827 130.879 307.665 131.406L307.422 132.2C307.261 132.727 307.608 133.211 308.197 133.28L310.593 133.563C311.182 133.632 311.791 133.261 311.952 132.734L312.195 131.941C312.356 131.413 312.01 130.93 311.421 130.86Z" fill="black" stroke="black" stroke-width="1.056" stroke-linecap="round" stroke-linejoin="round"/>
<path id="Path_53" d="M302.396 164.229L302.222 165.228C301.504 169.314 300.763 173.539 303.471 175.782C305.35 177.339 307.881 177.929 312.778 177.122L312.465 175.504C308.189 176.205 306.36 175.7 304.9 174.49C302.815 172.763 303.455 169.117 304.133 165.258L304.308 164.251L302.396 164.229Z" fill="white" stroke="black" stroke-width="1.056" stroke-linecap="round" stroke-linejoin="round"/>
<path id="Path_54" d="M297.039 133.571C297.375 133.571 297.71 133.596 298.041 133.648C303.73 134.52 308.006 142.715 310.836 148.138L311.448 149.308L310.292 149.871L309.678 148.698C307.104 143.767 302.799 135.514 297.663 134.726C296.271 134.511 294.914 134.855 293.515 135.777L292.848 134.938C294.226 134.03 295.632 133.573 297.039 133.571Z" fill="white" stroke="black" stroke-width="1.056" stroke-linecap="round" stroke-linejoin="round"/>
<path id="Path_55" d="M290.154 135.432L292.413 134.272C292.968 133.987 293.625 134.12 293.879 134.569L294.262 135.245C294.516 135.693 294.272 136.288 293.716 136.573L291.457 137.733C290.902 138.018 290.245 137.885 289.991 137.436L289.608 136.76C289.354 136.311 289.598 135.717 290.154 135.432Z" fill="black" stroke="black" stroke-width="1.056" stroke-linecap="round" stroke-linejoin="round"/>
<path id="Path_56" d="M293.219 151.419C290.659 160.937 295.475 164.059 297.664 164.959C301.374 166.485 306.29 165.573 309.622 162.736C311.507 161.131 315.477 156.584 311.667 149.018L309.878 149.862C312.222 154.518 311.673 158.801 308.37 161.612C305.67 163.913 301.684 164.655 298.676 163.419C294.809 161.828 293.505 157.515 295.099 151.585L293.219 151.419Z" fill="white" stroke="black" stroke-width="1.056" stroke-linecap="round" stroke-linejoin="round"/>
<path id="Path_57" d="M312.556 184.47L286.031 180.927L288.583 160.444L314.929 162.709L312.556 184.47Z" fill="white" stroke="black" stroke-width="1.056" stroke-linecap="round" stroke-linejoin="round"/>
<path id="Path_58" d="M315.552 165.21L286.031 162.673L288.584 155.507L315.995 157.863L315.552 165.21Z" fill="white" stroke="black" stroke-width="1.056" stroke-linecap="round" stroke-linejoin="round"/>
<ellipse id="Oval_6" cx="325.894" cy="112.667" rx="2.32784" ry="2.27832" fill="white" stroke="black" stroke-width="1.056" stroke-linecap="round" stroke-linejoin="round"/>
<ellipse id="Oval_7" cx="323.566" cy="152.922" rx="2.32784" ry="2.27832" fill="white" stroke="black" stroke-width="1.056" stroke-linecap="round" stroke-linejoin="round"/>
<path id="Path_59" d="M297.975 49.0449L293.248 50.6278L288.335 49.559L287.39 50.2904L293.097 51.4226C293.313 53.2756 293.549 58.181 290.378 59.3662L286.922 56.1144L285.727 56.2579L290.069 60.1935C290.388 61.5725 292.031 63.7845 295.084 64.2086C298.136 64.6327 307.739 60.3997 297.975 49.0449Z" fill="black" stroke="black" stroke-width="1.056" stroke-linecap="round" stroke-linejoin="round"/>
<g id="Path_60">
<path d="M289.946 57.2788C278.401 59.4618 283.051 43.9509 291.16 51.5904L289.946 57.2788Z" fill="white"/>
<path d="M289.946 57.2788C278.401 59.4618 283.051 43.9509 291.16 51.5904" stroke="black" stroke-width="1.056" stroke-linecap="round" stroke-linejoin="round"/>
</g>
<path id="Path_61" d="M254.952 191.65L264.578 193.352C264.578 193.352 262.776 160.933 268.658 161.302L261.213 157.674C253.857 157.794 254.952 191.65 254.952 191.65Z" fill="#365486" stroke="black" stroke-width="1.056" stroke-linecap="round" stroke-linejoin="round"/>
<path id="Path_62" d="M266.981 272.965C275.457 280.5 295.543 277.132 295.543 277.132L293.23 286.324C293.23 286.324 269.195 287.397 264.578 281.345L266.981 272.965Z" fill="black" stroke="black" stroke-width="1.056" stroke-linecap="round" stroke-linejoin="round"/>
<g id="Path_63">
<path d="M329.703 59.6221C330.999 61.4631 331.809 63.5868 332.063 65.8055L329.703 59.6221Z" fill="#F5F6F7"/>
<path d="M329.703 59.6221C330.999 61.4631 331.809 63.5868 332.063 65.8055" stroke="black" stroke-width="1.056" stroke-linecap="round" stroke-linejoin="round"/>
</g>
<g id="Path_64">
<path d="M303.96 212.552C301.665 213.415 299.221 213.836 296.762 213.791L303.96 212.552Z" fill="#F5F6F7"/>
<path d="M303.96 212.552C301.665 213.415 299.221 213.836 296.762 213.791" stroke="black" stroke-width="1.056" stroke-linecap="round" stroke-linejoin="round"/>
</g>
<g id="Path_65">
<path d="M283.604 132.54C282.155 131.983 280.807 131.203 279.613 130.228L283.604 132.54Z" fill="#F5F6F7"/>
<path d="M283.604 132.54C282.155 131.983 280.807 131.203 279.613 130.228" stroke="black" stroke-width="1.056" stroke-linecap="round" stroke-linejoin="round"/>
</g>
<g id="Path_66">
<path d="M249.806 175.254L245.886 170.989C244.652 174.055 243.532 177.162 242.527 180.31" fill="#F5F6F7"/>
<path d="M249.806 175.254L245.886 170.989C244.652 174.055 243.532 177.162 242.527 180.31" stroke="black" stroke-width="1.056" stroke-linecap="round" stroke-linejoin="round"/>
</g>
<path id="Path_67" d="M167.408 331.765C196.27 284.963 193.572 192.781 146.248 225.656C146.248 225.656 170.699 154.654 117.754 182.138C117.754 182.138 116.856 123.398 82.6883 164.906C82.6883 164.906 60.5986 121.076 42.8335 136.349C23.7286 152.774 55.0386 184.78 55.0386 184.78C55.0386 184.78 16.0529 208.746 60.1554 226.149C60.1554 226.149 25.0663 257.324 77.4226 270.054C77.4226 270.054 37.1803 321.141 122.2 330.988C166.689 336.14 167.408 331.765 167.408 331.765Z" fill="#ECEDEE"/>
<path id="Path_68" fill-rule="evenodd" clip-rule="evenodd" d="M167.408 331.765C196.27 284.963 193.572 192.781 146.248 225.656C146.248 225.656 170.699 154.654 117.754 182.138C117.754 182.138 116.856 123.398 82.6883 164.906C82.6883 164.906 60.5986 121.076 42.8335 136.349C23.7286 152.774 55.0386 184.78 55.0386 184.78C55.0386 184.78 16.0529 208.746 60.1554 226.149C60.1554 226.149 25.0663 257.324 77.4226 270.054C77.4226 270.054 37.1803 321.141 122.2 330.988C166.689 336.14 167.408 331.765 167.408 331.765Z" stroke="black" stroke-width="1.056" stroke-linecap="round" stroke-linejoin="round"/>
<path id="Path_69" d="M52.2188 156.707C62.312 165.307 164.939 320.039 167.41 331.765C167.41 331.765 67.8331 177.085 52.2188 156.707Z" fill="#CFCFD0"/>
<path id="Path_70" d="M48.4375 206.693C68.8773 211.184 77.2656 209.513 77.2656 209.513L48.4375 206.693Z" fill="#CFCFD0"/>
<path id="Path_71" d="M96.3366 164.878C92.8219 185.607 94.8713 193.951 94.8713 193.951L96.3366 164.878Z" fill="#CFCFD0"/>
<path id="Path_72" d="M56.957 249.482C89.2738 247.684 101.044 242.16 101.044 242.16L56.957 249.482Z" fill="#CFCFD0"/>
<path id="Path_73" d="M85.293 293.647C117.61 291.849 129.38 286.325 129.38 286.325L85.293 293.647Z" fill="#CFCFD0"/>
<path id="Path_74" d="M118.875 227.506L134.729 189.236C119.914 215.071 118.875 227.506 118.875 227.506Z" fill="#CFCFD0"/>
<path id="Path_75" d="M143.762 271.707L159.616 233.438C144.801 259.273 143.762 271.707 143.762 271.707Z" fill="#CFCFD0"/>
<g id="Path_76">
<path d="M124.273 306.751C126.057 307.047 127.89 306.801 129.525 306.046L124.273 306.751Z" fill="#F5F6F7"/>
<path d="M124.273 306.751C126.057 307.047 127.89 306.801 129.525 306.046" stroke="black" stroke-width="1.056" stroke-linecap="round" stroke-linejoin="round"/>
</g>
<g id="Path_77">
<path d="M131.828 246.759L134.497 236.139L131.828 246.759Z" fill="#F5F6F7"/>
<path d="M131.828 246.759L134.497 236.139" stroke="black" stroke-width="1.056" stroke-linecap="round" stroke-linejoin="round"/>
</g>
<g id="Path_78">
<path d="M61.2734 195.878C62.9773 196.239 64.5835 196.947 65.9859 197.956L61.2734 195.878Z" fill="#F5F6F7"/>
<path d="M61.2734 195.878C62.9773 196.239 64.5835 196.947 65.9859 197.956" stroke="black" stroke-width="1.056" stroke-linecap="round" stroke-linejoin="round"/>
</g>
<rect id="Rectangle" x="111.383" y="143.501" width="11.7394" height="15.7024" rx="5.23443" fill="white" stroke="black" stroke-width="1.056" stroke-linecap="round" stroke-linejoin="round"/>
<rect id="Rectangle_2" x="111.383" y="161.539" width="11.7394" height="15.7024" rx="5.23443" fill="white" stroke="black" stroke-width="1.056" stroke-linecap="round" stroke-linejoin="round"/>
<rect id="Rectangle_3" x="114.434" y="100.427" width="128.569" height="236.227" rx="18.0292" fill="#ECEDEE" stroke="black" stroke-width="1.056" stroke-linecap="round" stroke-linejoin="round"/>
<path id="Path_79" d="M221.303 106.206H212.888C210.178 106.206 207.98 108.396 207.98 111.098C207.98 113.799 205.783 115.99 203.073 115.99H154.363C151.653 115.99 149.455 113.799 149.455 111.098C149.455 108.396 147.258 106.206 144.548 106.206H136.133C127.812 106.206 121.066 112.93 121.066 121.224V312.365C121.066 320.659 127.812 327.383 136.133 327.383H221.303C229.624 327.383 236.369 320.659 236.369 312.365V121.224C236.369 112.93 229.624 106.206 221.303 106.206Z" fill="white" stroke="black" stroke-width="1.056" stroke-linecap="round" stroke-linejoin="round"/>
<rect id="Rectangle_4" x="129.562" y="131.15" width="98.3159" height="110.787" rx="10.4807" fill="white" stroke="black" stroke-width="1.056" stroke-linecap="round" stroke-linejoin="round"/>
<rect id="Rectangle_5" x="129.562" y="253.886" width="98.3159" height="20.3647" rx="10.1824" fill="#ECEDEE" stroke="black" stroke-width="1.056" stroke-linecap="round" stroke-linejoin="round"/>
<rect id="Rectangle_6" x="129.562" y="282.073" width="98.3159" height="20.3647" rx="10.1824" fill="white" stroke="black" stroke-width="1.056" stroke-linecap="round" stroke-linejoin="round"/>
<g id="Shape">
<path fill-rule="evenodd" clip-rule="evenodd" d="M139.559 186.544C139.559 165.412 157.125 148.219 178.718 148.219C200.31 148.219 217.877 165.412 217.877 186.544C217.877 207.678 200.31 224.87 178.718 224.87C157.125 224.87 139.559 207.677 139.559 186.544ZM146.995 186.544C147.016 203.643 161.248 217.571 178.718 217.592C196.187 217.571 210.419 203.643 210.44 186.544C210.419 169.447 196.188 155.519 178.718 155.496C161.247 155.519 147.016 169.447 146.995 186.544Z" fill="black"/>
<path d="M178.718 217.592L178.718 218.12H178.719L178.718 217.592ZM146.995 186.544L146.467 186.543L146.467 186.545L146.995 186.544ZM210.44 186.544L210.968 186.545V186.543L210.44 186.544ZM178.718 155.496L178.718 154.968L178.717 154.968L178.718 155.496ZM178.718 147.691C156.845 147.691 139.031 165.109 139.031 186.544H140.087C140.087 165.714 157.406 148.747 178.718 148.747V147.691ZM218.405 186.544C218.405 165.109 200.591 147.691 178.718 147.691V148.747C200.029 148.747 217.349 165.714 217.349 186.544H218.405ZM178.718 225.398C200.591 225.398 218.405 207.98 218.405 186.544H217.349C217.349 207.375 200.029 224.342 178.718 224.342V225.398ZM139.031 186.544C139.031 207.98 156.845 225.398 178.718 225.398V224.342C157.406 224.342 140.087 207.375 140.087 186.544H139.031ZM178.719 217.064C161.529 217.043 147.544 203.34 147.523 186.543L146.467 186.545C146.489 203.945 160.967 218.098 178.718 218.12L178.719 217.064ZM209.912 186.543C209.891 203.34 195.906 217.043 178.718 217.064L178.719 218.12C196.468 218.098 210.947 203.945 210.968 186.545L209.912 186.543ZM178.717 156.024C195.907 156.046 209.891 169.749 209.912 186.545L210.968 186.543C210.947 169.145 196.469 154.991 178.718 154.968L178.717 156.024ZM147.523 186.545C147.544 169.749 161.528 156.046 178.718 156.024L178.717 154.968C160.966 154.991 146.489 169.145 146.467 186.543L147.523 186.545Z" fill="black"/>
</g>
<path id="Path_80" d="M192.127 173.645C187.501 171.807 182.192 172.897 178.72 176.397C175.553 173.258 170.874 172.066 166.535 173.291C162.196 174.515 158.896 177.961 157.942 182.263C156.987 186.565 158.532 191.031 161.964 193.893L175.482 205.514C177.031 206.848 179.348 206.884 180.94 205.598L194.818 194.405C198.379 191.814 200.236 187.558 199.679 183.261C199.122 178.965 196.237 175.292 192.127 173.645H192.127Z" fill="white" stroke="black" stroke-width="1.056" stroke-linecap="round" stroke-linejoin="round"/>
<g id="Path_81">
<path d="M151.19 141.228C146.712 143.731 142.82 147.12 139.766 151.175L151.19 141.228Z" fill="#F5F6F7"/>
<path d="M151.19 141.228C146.712 143.731 142.82 147.12 139.766 151.175" stroke="black" stroke-width="1.056" stroke-linecap="round" stroke-linejoin="round"/>
</g>
<g id="Path_82">
<path d="M204.673 289.124L201.855 291.882L204.673 289.124Z" fill="#F5F6F7"/>
<path d="M204.673 289.124L201.855 291.882" stroke="black" stroke-width="1.056" stroke-linecap="round" stroke-linejoin="round"/>
</g>
<path id="Path_83" d="M282.973 239.75H253.177C248.013 239.75 243.812 235.638 243.812 230.584V215.003C243.812 209.949 248.013 205.838 253.177 205.838H282.973C288.137 205.838 292.338 209.949 292.338 215.003V230.584C292.338 235.638 288.137 239.75 282.973 239.75Z" fill="white"/>
<path id="Path_84" d="M255.958 213.178C253.387 213.183 251.307 215.219 251.313 217.725V230.584C251.31 231.59 252.145 232.407 253.177 232.409H282.973C284.006 232.407 284.841 231.59 284.838 230.584V217.725C284.844 215.219 282.764 213.183 280.192 213.178L255.958 213.178Z" fill="white"/>
<g id="Clipped_11">
<path id="Path_85" d="M241.108 211.604C241.825 221.856 287.343 219.576 295.228 222.558C303.113 225.539 290.031 233.607 289.135 233.958C288.239 234.309 236.628 230.836 236.628 230.836L233.402 219.401" fill="#CFCFD0"/>
</g>
<path id="Path_86" fill-rule="evenodd" clip-rule="evenodd" d="M282.973 239.75H253.177C248.013 239.75 243.812 235.638 243.812 230.584V215.003C243.812 209.949 248.013 205.838 253.177 205.838H282.973C288.137 205.838 292.338 209.949 292.338 215.003V230.584C292.338 235.638 288.137 239.75 282.973 239.75Z" stroke="black" stroke-width="1.056" stroke-linecap="round" stroke-linejoin="round"/>
<path id="Path_87" fill-rule="evenodd" clip-rule="evenodd" d="M255.958 213.178C253.387 213.183 251.307 215.219 251.313 217.725V230.584C251.31 231.59 252.145 232.407 253.177 232.409H282.973C284.006 232.407 284.841 231.59 284.838 230.584V217.725C284.844 215.219 282.764 213.183 280.192 213.178L255.958 213.178Z" stroke="black" stroke-width="1.056" stroke-linecap="round" stroke-linejoin="round"/>
<rect id="Rectangle_7" x="187.621" y="225.033" width="151.577" height="113.088" rx="13.5953" fill="black" stroke="black" stroke-width="1.056" stroke-linecap="round" stroke-linejoin="round"/>
<rect id="Rectangle_8" x="196.949" y="225.033" width="151.577" height="113.088" rx="13.5953" fill="#4A55A2"/>
<g id="Clipped_12">
<mask id="mask10_1672_20089" style="mask-type:luminance" maskUnits="userSpaceOnUse" x="197" y="225" width="152" height="113">
<path id="Rectangle_9" d="M197 292L199.418 237.987C199.744 230.722 205.728 225 213 225H335.405C342.913 225 349 231.087 349 238.595V283V324.405C349 331.913 342.913 338 335.405 338H210.595C203.087 338 197 331.913 197 324.405V292Z" fill="white"/>
</mask>
<g mask="url(#mask10_1672_20089)">
<path id="Path_88" d="M319.026 220.926C370.333 290.771 298.341 331.399 251.08 340.986C203.819 350.572 355.407 367.92 355.407 367.92L382.187 323.639L366.135 232.409L345.146 210.427L324.623 211.34" fill="#252D66"/>
</g>
</g>
<rect id="Rectangle_10" x="196.949" y="225.033" width="151.577" height="113.088" rx="13.5953" stroke="#EEF0E5" stroke-width="1.056" stroke-linecap="round" stroke-linejoin="round"/>
<path id="Path_89" d="M298.318 271.241H280.969V254.261C280.974 252.227 279.285 250.574 277.197 250.569H263.62C261.532 250.574 259.843 252.227 259.848 254.261V271.241H242.499C240.411 271.246 238.722 272.899 238.727 274.933V288.221C238.722 290.256 240.411 291.909 242.499 291.913H259.848V308.893C259.843 310.928 261.532 312.581 263.62 312.585H277.197C279.285 312.581 280.974 310.928 280.969 308.893V291.913H298.318C300.406 291.909 302.095 290.256 302.091 288.221V274.933C302.095 272.899 300.406 271.246 298.318 271.241Z" fill="white" stroke="black" stroke-width="1.056" stroke-linecap="round" stroke-linejoin="round"/>
<g id="Path_90">
<path d="M229.206 248.034L223.695 253.412L229.206 248.034Z" fill="#F5F6F7"/>
<path d="M229.206 248.034L223.695 253.412" stroke="black" stroke-width="1.056" stroke-linecap="round" stroke-linejoin="round"/>
</g>
<path id="Path_91" d="M307.424 312.192C305.537 314.476 303.269 316.434 300.715 317.983" stroke="#042D36" stroke-width="1.056" stroke-linecap="round" stroke-linejoin="round"/>
<path id="Path_92" d="M137.772 130.482C137.772 130.482 131.045 127.683 130.447 127.223C129.849 126.763 124.65 119.855 124.65 119.855C124.65 119.855 121.253 118.712 124.095 125.317C124.095 125.317 114.946 122.594 112.806 121.702C111.012 120.955 108.162 129.178 136.565 138.38C149.252 142.49 137.772 130.482 137.772 130.482Z" fill="white"/>
<g id="Clipped_13">
<mask id="mask11_1672_20089" style="mask-type:luminance" maskUnits="userSpaceOnUse" x="111" y="119" width="32" height="21">
<path id="Path_93" fill-rule="evenodd" clip-rule="evenodd" d="M137.772 130.482C137.772 130.482 131.045 127.683 130.447 127.223C129.849 126.763 124.65 119.855 124.65 119.855C124.65 119.855 121.253 118.712 124.095 125.317C124.095 125.317 114.946 122.594 112.806 121.702C111.012 120.955 108.162 129.178 136.565 138.38C149.252 142.49 137.772 130.482 137.772 130.482Z" fill="white"/>
</mask>
<g mask="url(#mask11_1672_20089)">
<path id="Path_94" d="M137.835 129.382C136.417 125.14 132.62 136.932 129.308 137.138C125.995 137.345 131.492 138.932 131.492 138.932L136.707 136.725" fill="#CFCFD0"/>
</g>
</g>
<path id="Path_95" fill-rule="evenodd" clip-rule="evenodd" d="M137.772 130.482C137.772 130.482 131.045 127.683 130.447 127.223C129.849 126.763 124.65 119.855 124.65 119.855C124.65 119.855 121.253 118.712 124.095 125.317C124.095 125.317 114.946 122.594 112.806 121.702C111.012 120.955 108.162 129.178 136.565 138.38C149.252 142.49 137.772 130.482 137.772 130.482Z" stroke="black" stroke-width="1.056" stroke-linecap="round" stroke-linejoin="round"/>
<path id="Path_96" d="M136.577 128.259C136.577 128.259 130.319 135.85 133 142.522L167.08 154.699C171.783 156.38 177.337 155.717 181.157 153.019L207.273 140.291L190.103 125.338L169.772 137.732L136.577 128.259Z" fill="#365486"/>
<path id="Path_97" fill-rule="evenodd" clip-rule="evenodd" d="M136.577 128.259C136.577 128.259 130.319 135.85 133 142.522L167.08 154.699C171.783 156.38 177.337 155.717 181.157 153.019L207.273 140.291L190.103 125.338L169.772 137.732L136.577 128.259Z" stroke="black" stroke-width="1.056" stroke-linecap="round" stroke-linejoin="round"/>
<path id="Path_98" d="M129.553 28.6622L140.315 57.2883C141.519 60.5001 144.268 62.9287 147.666 63.782L177.862 71.3339C186.406 73.4709 188.738 84.2696 181.807 89.6075L157.316 108.471C154.561 110.596 153.052 113.904 153.278 117.32L155.27 147.76C155.834 156.374 146.061 161.882 138.732 157.08L112.834 140.112C109.927 138.206 106.241 137.822 102.987 139.088L74.023 150.349C65.8269 153.535 57.4551 146.14 59.8563 137.835L68.3416 108.485C69.2953 105.188 68.5302 101.645 66.2938 99.0024L46.4008 75.5221C40.7716 68.8777 45.3704 58.7999 54.1831 58.4685L85.3255 57.2971C88.8297 57.1629 92.0406 55.3534 93.9074 52.4608L110.577 26.6882C115.294 19.3952 126.508 20.5617 129.553 28.6622Z" fill="#4A55A2" stroke="black" stroke-width="1.056" stroke-linecap="round" stroke-linejoin="round"/>
<path id="Path_99" d="M122.364 141.19C122.364 141.19 115.946 138.102 115.375 137.595C114.805 137.087 109.844 129.465 109.844 129.465C109.844 129.465 106.604 128.204 109.315 135.491C109.315 135.491 100.587 132.487 98.545 131.503C96.8328 130.679 91.9841 137.976 119.084 148.128C131.188 152.663 122.364 141.19 122.364 141.19Z" fill="white"/>
<g id="Clipped_14">
<mask id="mask12_1672_20089" style="mask-type:luminance" maskUnits="userSpaceOnUse" x="97" y="129" width="29" height="21">
<path id="Path_100" fill-rule="evenodd" clip-rule="evenodd" d="M122.364 141.19C122.364 141.19 115.946 138.102 115.375 137.595C114.805 137.087 109.844 129.465 109.844 129.465C109.844 129.465 106.604 128.204 109.315 135.491C109.315 135.491 100.587 132.487 98.545 131.503C96.8328 130.679 91.9841 137.976 119.084 148.128C131.188 152.663 122.364 141.19 122.364 141.19Z" fill="white"/>
</mask>
<g mask="url(#mask12_1672_20089)">
<path id="Path_101" d="M119.721 140.477C118.029 135.345 114.435 146.726 110.911 146.519C107.388 146.312 114.083 151.002 114.083 151.002L121.835 145.415" fill="#CFCFD0"/>
</g>
</g>
<path id="Path_102" fill-rule="evenodd" clip-rule="evenodd" d="M122.364 141.19C122.364 141.19 115.946 138.102 115.375 137.595C114.805 137.087 109.844 129.465 109.844 129.465C109.844 129.465 106.604 128.204 109.315 135.491C109.315 135.491 100.587 132.487 98.545 131.503C96.8328 130.679 91.9841 137.976 119.084 148.128C131.188 152.663 122.364 141.19 122.364 141.19Z" stroke="black" stroke-width="1.056" stroke-linecap="round" stroke-linejoin="round"/>
<path id="Path_103" d="M179.231 109.693C179.231 109.973 186.814 130.774 186.814 130.774C186.814 130.774 168.483 133.115 168.582 132.74C168.681 132.366 163.371 106.643 163.371 106.643L179.231 109.693Z" fill="white"/>
<g id="Clipped_15">
<mask id="mask13_1672_20089" style="mask-type:luminance" maskUnits="userSpaceOnUse" x="163" y="106" width="24" height="27">
<path id="Path_104" fill-rule="evenodd" clip-rule="evenodd" d="M179.231 109.693C179.231 109.973 186.814 130.774 186.814 130.774C186.814 130.774 168.483 133.115 168.582 132.74C168.681 132.366 163.371 106.643 163.371 106.643L179.231 109.693Z" fill="white"/>
</mask>
<g mask="url(#mask13_1672_20089)">
<path id="Path_105" d="M161.164 122.999C169.973 122.93 171.521 117.134 171.804 113.962C172.087 110.79 163.067 115.067 163.067 115.067L161.164 120.102" fill="#CFCFD0"/>
</g>
</g>
<path id="Path_106" fill-rule="evenodd" clip-rule="evenodd" d="M179.231 109.693C179.231 109.973 186.814 130.774 186.814 130.774C186.814 130.774 168.483 133.115 168.582 132.74C168.681 132.366 163.371 106.643 163.371 106.643L179.231 109.693Z" stroke="black" stroke-width="1.056" stroke-linecap="round" stroke-linejoin="round"/>
<path id="Path_107" d="M159.141 94.8711C159.141 94.8711 153.723 114.093 153.723 115.466C153.723 116.839 165.75 118.836 168.657 118.337C171.565 117.837 175.662 96.3689 175.662 96.3689L159.141 94.8711Z" fill="white"/>
<path id="Path_108" fill-rule="evenodd" clip-rule="evenodd" d="M159.141 94.8711C159.141 94.8711 153.723 114.093 153.723 115.466C153.723 116.839 165.75 118.836 168.657 118.337C171.565 117.837 175.662 96.3689 175.662 96.3689L159.141 94.8711Z" stroke="black" stroke-width="1.056" stroke-linecap="round" stroke-linejoin="round"/>
<path id="Path_109" d="M160.361 102.881C160.611 102.944 160.876 102.906 161.098 102.777C161.32 102.649 161.48 102.439 161.543 102.195L161.949 100.639C162.083 100.131 161.769 99.6131 161.248 99.4815C160.998 99.4193 160.733 99.4568 160.511 99.5855C160.289 99.7143 160.129 99.9238 160.066 100.168L159.66 101.724C159.526 102.232 159.84 102.75 160.361 102.881Z" fill="black"/>
<path id="Path_110" d="M161.213 96.1878C164.09 96.7754 164.422 98.0878 162.599 97.8353C160.776 97.5827 159.334 95.8039 161.213 96.1878Z" fill="black"/>
<g id="Path_111">
<path d="M158.502 100.785C154.469 102.093 154.558 105.835 157.184 105.588L158.502 100.785Z" fill="white"/>
<path d="M158.502 100.785C154.469 102.093 154.558 105.835 157.184 105.588" stroke="black" stroke-width="1.056" stroke-linecap="round" stroke-linejoin="round"/>
</g>
<ellipse id="Oval_8" opacity="0.27" cx="165.596" cy="104.979" rx="3.26425" ry="3.19479" fill="#CFCFD0"/>
<g id="Path_112">
<path d="M162.087 107.168C160.442 108.693 158.582 108.031 158.582 108.031L162.087 107.168Z" fill="white"/>
<path d="M162.087 107.168C160.442 108.693 158.582 108.031 158.582 108.031" stroke="black" stroke-width="1.056" stroke-linecap="round" stroke-linejoin="round"/>
</g>
<path id="Path_113" d="M180.214 111.778C170.756 112.006 168.656 106.643 168.656 106.643C168.656 106.643 170.096 97.1347 168.656 96.3691L179.89 97.3677L180.214 111.778Z" fill="black" stroke="black" stroke-width="1.056" stroke-linecap="round" stroke-linejoin="round"/>
<path id="Path_114" d="M168.996 107.21C176.7 101.308 179.59 105.666 176.448 109.696C173.306 113.726 170.679 113.962 170.679 113.962L168.996 107.21Z" fill="white" stroke="black" stroke-width="1.056" stroke-linecap="round" stroke-linejoin="round"/>
<g id="Path_115">
<path d="M169.435 96.3691L168.658 105.762C168.658 105.762 167.733 111.191 165.651 111.285C163.57 111.378 155.721 109.477 155.086 109.679C154.45 109.881 152.864 115.497 153.162 116.246C153.459 116.995 165.916 119.132 168.658 118.82C171.401 118.508 174.87 103.702 174.87 103.702" fill="black"/>
<path d="M169.435 96.3691L168.658 105.762C168.658 105.762 167.733 111.191 165.651 111.285C163.57 111.378 155.721 109.477 155.086 109.679C154.45 109.881 152.864 115.497 153.162 116.246C153.459 116.995 165.916 119.132 168.658 118.82C171.401 118.508 174.87 103.702 174.87 103.702" stroke="black" stroke-width="1.056" stroke-linecap="round" stroke-linejoin="round"/>
</g>
<path id="Path_116" d="M180.881 98.0855C182.798 89.2548 176.982 83.8877 166.541 84.4493C156.1 85.011 158.215 95.7452 158.215 95.7452L180.881 98.0855Z" fill="white" stroke="black" stroke-width="1.056" stroke-linecap="round" stroke-linejoin="round"/>
<path id="Path_117" d="M145.737 95.4593L180.274 99.0765C180.741 99.1317 181.167 98.8098 181.229 98.355L181.249 98.1793C181.272 97.9608 181.204 97.7426 181.06 97.5733C180.917 97.404 180.71 97.2976 180.485 97.2777L145.948 93.6605C145.481 93.6053 145.055 93.9271 144.994 94.382L144.973 94.5577C144.951 94.7762 145.019 94.9944 145.162 95.1637C145.306 95.333 145.513 95.4394 145.737 95.4593Z" fill="white" stroke="black" stroke-width="1.056" stroke-linecap="round" stroke-linejoin="round"/>
<g id="Path_118">
<path d="M167.548 128.639L167.125 124.49L181.995 111.109V119.713" fill="white"/>
<path d="M167.548 128.639L167.125 124.49L181.995 111.109V119.713" stroke="black" stroke-width="1.056" stroke-linecap="round" stroke-linejoin="round"/>
</g>
<path id="Path_119" d="M263.371 249.113L300.728 230.85L301.136 218.569L294.038 217.503L263.43 228.643L263.371 249.113Z" fill="white"/>
<g id="Clipped_16">
<mask id="mask14_1672_20089" style="mask-type:luminance" maskUnits="userSpaceOnUse" x="263" y="217" width="39" height="33">
<path id="Path_120" fill-rule="evenodd" clip-rule="evenodd" d="M263.371 249.113L300.728 230.85L301.136 218.569L294.038 217.503L263.43 228.643L263.371 249.113Z" fill="white"/>
</mask>
<g mask="url(#mask14_1672_20089)">
<path id="Path_121" d="M277.164 237.51C289.647 248.405 281.228 225.536 286.083 220.399C290.938 215.262 271.855 217.503 271.855 217.503L273.147 235.209" fill="#CFCFD0"/>
</g>
</g>
<path id="Path_122" fill-rule="evenodd" clip-rule="evenodd" d="M263.371 249.113L300.728 230.85L301.136 218.569L294.038 217.503L263.43 228.643L263.371 249.113V249.113Z" stroke="black" stroke-width="1.056" stroke-linecap="round" stroke-linejoin="round"/>
<path id="Path_123" d="M329.06 236.711L305.395 219.11L307.148 216.995L299.027 210.386L289.715 218.469C289.715 218.469 298.878 224.714 297.857 232.252C297.857 232.252 306.025 229.208 314.054 237.175C321.12 244.186 329.06 236.711 329.06 236.711Z" fill="black"/>
<g id="Clipped_17">
<mask id="mask15_1672_20089" style="mask-type:luminance" maskUnits="userSpaceOnUse" x="289" y="210" width="41" height="31">
<path id="Path_124" fill-rule="evenodd" clip-rule="evenodd" d="M329.06 236.711L305.395 219.11L307.148 216.995L299.027 210.386L289.715 218.469C289.715 218.469 298.878 224.714 297.857 232.252C297.857 232.252 306.025 229.208 314.054 237.175C321.12 244.186 329.06 236.711 329.06 236.711Z" fill="white"/>
</mask>
<g mask="url(#mask15_1672_20089)">
<g id="Path_125">
<path d="M310.713 218.139L305.395 219.111L294.434 211.259L297.393 208.207H301.78" fill="black"/>
<path d="M310.713 218.139L305.395 219.111L294.434 211.259L297.393 208.207H301.78" stroke="black" stroke-width="1.056" stroke-linecap="round" stroke-linejoin="round"/>
</g>
</g>
</g>
<path id="Path_126" fill-rule="evenodd" clip-rule="evenodd" d="M329.06 236.711L305.395 219.11L307.148 216.995L299.027 210.386L289.715 218.469C289.715 218.469 298.878 224.714 297.857 232.252C297.857 232.252 306.025 229.208 314.054 237.175C321.12 244.186 329.06 236.711 329.06 236.711Z" stroke="black" stroke-width="1.056" stroke-linecap="round" stroke-linejoin="round"/>
<path id="Path_127" d="M134.578 287.876L116.277 326.606L122.85 335.598L128.871 331.457L146.009 302.435L134.578 287.876Z" fill="white"/>
<g id="Clipped_18">
<mask id="mask16_1672_20089" style="mask-type:luminance" maskUnits="userSpaceOnUse" x="116" y="287" width="31" height="49">
<path id="Path_128" fill-rule="evenodd" clip-rule="evenodd" d="M134.578 287.876L116.277 326.606L122.85 335.598L128.871 331.457L146.009 302.435L134.578 287.876Z" fill="white"/>
</mask>
<g mask="url(#mask16_1672_20089)">
<path id="Path_129" d="M131.144 300.113C119.768 293.362 137.272 319.293 136.985 322.975C136.699 326.658 144.733 308.706 144.733 308.706L135.12 300.88" fill="#CFCFD0"/>
</g>
</g>
<path id="Path_130" fill-rule="evenodd" clip-rule="evenodd" d="M134.578 287.876L116.277 326.606L122.85 335.598L128.871 331.457L146.009 302.435L134.578 287.876V287.876Z" stroke="black" stroke-width="1.056" stroke-linecap="round" stroke-linejoin="round"/>
<path id="Path_131" d="M91.3438 342L119.291 338.155L119.138 340.865L129.048 339.949L131.63 327.79C131.63 327.79 121.129 329.683 117.682 323.633C117.682 323.633 113.149 331.427 102.548 331.317C93.2195 331.22 91.3438 342 91.3438 342Z" fill="black"/>
<g id="Clipped_19">
<mask id="mask17_1672_20089" style="mask-type:luminance" maskUnits="userSpaceOnUse" x="91" y="323" width="41" height="19">
<path id="Path_132" fill-rule="evenodd" clip-rule="evenodd" d="M91.3438 342L119.291 338.155L119.138 340.865L129.048 339.949L131.63 327.79C131.63 327.79 121.129 329.683 117.682 323.633C117.682 323.633 113.149 331.427 102.548 331.317C93.2195 331.22 91.3438 342 91.3438 342Z" fill="white"/>
</mask>
<g mask="url(#mask17_1672_20089)">
<path id="Path_133" d="M148.28 335.599L116.667 338.829L112.594 351.483H147.593L148.28 335.599Z" fill="black" stroke="black" stroke-width="1.056" stroke-linecap="round" stroke-linejoin="round"/>
</g>
</g>
<path id="Path_134" fill-rule="evenodd" clip-rule="evenodd" d="M91.3438 342L119.291 338.155L119.138 340.865L129.048 339.949L131.63 327.79C131.63 327.79 121.129 329.683 117.682 323.633C117.682 323.633 113.149 331.427 102.548 331.317C93.2195 331.22 91.3438 342 91.3438 342Z" stroke="black" stroke-width="1.056" stroke-linecap="round" stroke-linejoin="round"/>
<path id="Path_135" d="M127.688 301.439C127.688 301.439 137.513 313.829 149.372 317.436L179.507 256.31L222.662 192.828L185.559 176.976L155.864 240.066L127.688 301.439Z" fill="#ECEDEE" stroke="black" stroke-width="1.056" stroke-linecap="round" stroke-linejoin="round"/>
<path id="Path_136" d="M180.828 186.161L214.496 165.198L215.294 158.794C217.931 163.773 237.417 236.357 237.417 236.357L277.341 218.078C283.704 223.724 285.638 244.698 284.836 246.229L235.163 266.091C230.734 267.862 225.92 265.816 223.197 261.005L193.122 206.086" fill="#ECEDEE"/>
<g id="Clipped_20">
<mask id="mask18_1672_20089" style="mask-type:luminance" maskUnits="userSpaceOnUse" x="180" y="158" width="106" height="109">
<path id="Path_137" fill-rule="evenodd" clip-rule="evenodd" d="M180.828 186.161L214.496 165.198L215.294 158.794C217.931 163.773 237.417 236.357 237.417 236.357L277.341 218.078C283.704 223.724 285.638 244.698 284.836 246.229L235.163 266.091C230.734 267.862 225.92 265.816 223.197 261.005L193.122 206.086" fill="white"/>
</mask>
<g mask="url(#mask18_1672_20089)">
<path id="Path_138" d="M175.664 176.8C182.286 195.017 199.98 186.857 216.556 188.642C233.133 190.427 224.077 213.812 241.247 228.493C258.416 243.174 231.065 169.24 231.065 169.24" fill="#CFCFD0"/>
</g>
</g>
<path id="Path_139" d="M180.828 186.161L214.496 165.198L215.294 158.794C217.931 163.773 237.417 236.357 237.417 236.357L277.341 218.078C283.704 223.724 285.638 244.698 284.836 246.229L235.163 266.091C230.734 267.862 225.92 265.816 223.197 261.005L193.122 206.086" stroke="black" stroke-width="1.056" stroke-linecap="round" stroke-linejoin="round"/>
<g id="Path_140">
<path d="M182.91 186.903C216.554 188.641 226.568 180.014 226.568 180.014L219.697 170.304" fill="white"/>
<path d="M182.91 186.903C216.554 188.641 226.568 180.014 226.568 180.014L219.697 170.304" stroke="black" stroke-width="1.056" stroke-linecap="round" stroke-linejoin="round"/>
</g>
<path id="Path_141" d="M165.891 128.262L182.382 115.558C182.382 115.558 216.05 131.526 226.569 172C226.569 172 208.647 189.245 177.642 186.634L165.891 128.262Z" fill="#365486"/>
<g id="Clipped_21">
<mask id="mask19_1672_20089" style="mask-type:luminance" maskUnits="userSpaceOnUse" x="165" y="115" width="62" height="72">
<path id="Path_142" fill-rule="evenodd" clip-rule="evenodd" d="M165.891 128.262L182.382 115.558C182.382 115.558 216.05 131.526 226.569 172C226.569 172 208.647 189.245 177.642 186.634L165.891 128.262Z" fill="white"/>
</mask>
<g mask="url(#mask19_1672_20089)">
<path id="Path_143" d="M191.289 144.103C172.321 167.512 175.384 184.709 187.865 186.796C200.345 188.883 160.469 190.308 160.254 189.697C160.038 189.087 155.512 156.721 155.512 156.721L175.059 142.675L183.021 137.867" fill="#163020"/>
</g>
</g>
<path id="Path_144" fill-rule="evenodd" clip-rule="evenodd" d="M165.891 128.262L182.382 115.558C182.382 115.558 216.05 131.526 226.569 172C226.569 172 208.647 189.245 177.642 186.634L165.891 128.262Z" stroke="black" stroke-width="1.056" stroke-linecap="round" stroke-linejoin="round"/>
<path id="Path_145" d="M181.62 121.505L152.342 148.76L119.148 138.19C119.148 138.19 112.889 146.661 115.57 154.105L149.651 167.693C154.353 169.568 159.907 168.828 163.727 165.818L191.287 144.102" fill="#365486"/>
<g id="Clipped_22">
<mask id="mask20_1672_20089" style="mask-type:luminance" maskUnits="userSpaceOnUse" x="114" y="121" width="78" height="48">
<path id="Path_146" fill-rule="evenodd" clip-rule="evenodd" d="M181.62 121.505L152.342 148.76L119.148 138.19C119.148 138.19 112.889 146.661 115.57 154.105L149.651 167.693C154.353 169.568 159.907 168.828 163.727 165.818L191.287 144.102" fill="white"/>
</mask>
<g mask="url(#mask20_1672_20089)">
<ellipse id="Oval_9" cx="158.939" cy="170.304" rx="9.71631" ry="6.67136" fill="black" stroke="black" stroke-width="1.056" stroke-linecap="round" stroke-linejoin="round"/>
</g>
</g>
<path id="Path_147" d="M181.62 121.505L152.342 148.76L119.148 138.19C119.148 138.19 112.889 146.661 115.57 154.105L149.651 167.693C154.353 169.568 159.907 168.828 163.727 165.818L191.287 144.102" stroke="black" stroke-width="1.056" stroke-linecap="round" stroke-linejoin="round"/>
<ellipse id="Oval_10" cx="169.803" cy="129.382" rx="0.759716" ry="0.74354" fill="black" stroke="black" stroke-width="1.056" stroke-linecap="round" stroke-linejoin="round"/>
<ellipse id="Oval_11" cx="175.662" cy="164.261" rx="0.759716" ry="0.74354" fill="black" stroke="black" stroke-width="1.056" stroke-linecap="round" stroke-linejoin="round"/>
<ellipse id="Oval_12" cx="177.978" cy="176.232" rx="0.759716" ry="0.74354" fill="black" stroke="black" stroke-width="1.056" stroke-linecap="round" stroke-linejoin="round"/>
<path id="Path_148" d="M228.013 165.098L217.035 168.718L215.398 163.965L226.376 160.345L228.013 165.098Z" fill="white" stroke="black" stroke-width="1.056" stroke-linecap="round" stroke-linejoin="round"/>
<ellipse id="Oval_13" cx="224.431" cy="163.632" rx="0.642193" ry="0.628523" fill="black" stroke="black" stroke-width="1.056" stroke-linecap="round" stroke-linejoin="round"/>
<path id="Path_149" d="M202.405 171.491L200.08 174.697L182.832 162.712L185.158 159.506L202.405 171.491Z" fill="black" stroke="black" stroke-width="1.056" stroke-linecap="round" stroke-linejoin="round"/>
<g id="Path_150">
<path d="M236.231 236.566C236.09 237.68 234.917 238.563 233.781 238.412L236.231 236.566Z" fill="#F5F6F7"/>
<path d="M236.231 236.566C236.09 237.68 234.917 238.563 233.781 238.412" stroke="black" stroke-width="1.056" stroke-linecap="round" stroke-linejoin="round"/>
</g>
<g id="Path_151">
<path d="M152.051 149.58L156.714 154.207L152.051 149.58Z" fill="#F5F6F7"/>
<path d="M152.051 149.58L156.714 154.207" stroke="black" stroke-width="1.056" stroke-linecap="round" stroke-linejoin="round"/>
</g>
<g id="Path_152">
<path d="M189.001 145.904L170.562 160.742L189.001 145.904Z" fill="#F5F6F7"/>
<path d="M189.001 145.904L170.562 160.742" stroke="black" stroke-width="1.056" stroke-linecap="round" stroke-linejoin="round"/>
</g>
</g>
<defs>
<linearGradient id="paint0_linear_1672_20089" x1="357.545" y1="174.039" x2="336.067" y2="127.446" gradientUnits="userSpaceOnUse">
<stop offset="0.1011" stop-color="#FEB645"/>
<stop offset="1" stop-color="#F53350"/>
</linearGradient>
<linearGradient id="paint1_linear_1672_20089" x1="292.922" y1="146.871" x2="291.125" y2="151.719" gradientUnits="userSpaceOnUse">
<stop offset="0.1023" stop-color="#DCDCF8"/>
<stop offset="0.8855" stop-color="#F5F6FE"/>
</linearGradient>
</defs>
</svg>
