<svg width="300" height="300" viewBox="0 0 300 300" fill="none" xmlns="http://www.w3.org/2000/svg">
<path fill-rule="evenodd" clip-rule="evenodd" d="M75 0C116.421 0 150 33.5786 150 75V0H225C266.421 0 300 33.5786 300 75C300 116.421 266.421 150 225 150C266.421 150 300 183.579 300 225C300 245.567 291.721 264.201 278.314 277.751L278.033 278.033L277.784 278.281C264.232 291.707 245.585 300 225 300C204.556 300 186.022 291.82 172.493 278.554C172.317 278.381 172.141 278.207 171.967 278.033C171.803 277.869 171.639 277.704 171.476 277.538C158.193 264.007 150 245.46 150 225C150 266.421 116.421 300 75 300C33.5786 300 0 266.421 0 225V150H75C33.5786 150 0 116.421 0 75C0 33.5786 33.5786 0 75 0ZM135 75C135 108.137 108.137 135 75 135V15C108.137 15 135 41.8629 135 75ZM285 225C285 191.863 258.137 165 225 165C191.863 165 165 191.863 165 225H285ZM15 165V225C15 258.137 41.8629 285 75 285C108.137 285 135 258.137 135 225V165H15ZM165 135V15H225C258.137 15 285 41.8629 285 75C285 108.137 258.137 135 225 135H165Z" fill="#097B94"/>
</svg>
